<?xml version="1.0" encoding="utf-8"?>
<!-- Generator: Adobe Illustrator 25.3.1, SVG Export Plug-In . SVG Version: 6.00 Build 0)  -->
<svg version="1.1" id="Layer_1" xmlns="http://www.w3.org/2000/svg" xmlns:xlink="http://www.w3.org/1999/xlink" x="0px" y="0px"
	 viewBox="0 0 410 404" style="enable-background:new 0 0 410 404;" xml:space="preserve">
<style type="text/css">
	.st0{fill:#61DAFB;}
	.st1{fill:#FFFFFF;}
</style>
<rect class="st0" width="410" height="404"/>
<g>
	<path class="st1" d="M30.7,283.6l6.9-10.1c6,3.5,12.5,5.3,18.6,5.3c4.2,0,5.9-1.2,5.9-2.8c0-2.3-2.5-2.7-10.4-4.3
		c-13.1-2.8-17.9-7.8-17.9-15.2c0-9.4,8.9-15.5,22.6-15.5c8.9,0,16.1,3.5,21.1,6.7l-7.3,9.7c-4.9-2.8-10.4-4.3-15.5-4.3
		c-3,0-4.9,0.9-4.9,2.7c0,2.1,2.5,2.3,9.9,4c14.3,3.3,18.5,7.5,18.5,15.5c0,8.9-8.4,15.8-24.4,15.8
		C45.7,290.8,36.8,287.6,30.7,283.6z"/>
	<path class="st1" d="M98.9,269.5v-14.7H87.4v-12.2l12.2-0.6l2.1-14.3h13.5V242h18.9v12.8h-18.9v14.4c0,6.8,3.2,8.9,9.3,8.9
		c3.3,0,6.1-0.7,8.7-1.5l2.8,11.8c-4.2,1.2-9.4,2.5-15.8,2.5C104.6,290.8,98.9,282.2,98.9,269.5z"/>
	<path class="st1" d="M150.5,242H164l1.3,10.1h0.4c4.6-7.8,11.4-11.3,18.6-11.3c4.3,0,6.4,0.8,9,1.9l-3.3,13.7
		c-2.8-0.8-4.8-1.3-8.3-1.3c-5.4,0-11.3,2.8-14.8,10.9v23.7h-16.4V242z"/>
	<path class="st1" d="M223,254.8h-18.1V242h34.5v47.6H223L223,254.8L223,254.8z M220,226c0-5.7,4.3-9.7,10.4-9.7
		c6.1,0,10.4,4,10.4,9.7c0,5.7-4.3,9.5-10.4,9.5C224.4,235.5,220,231.8,220,226z"/>
	<path class="st1" d="M261.1,242h13.4l1.2,5.7h0.4c3.8-3.6,8.9-6.9,15.9-6.9c10.6,0,15.1,7.6,15.1,19.5v29.3h-16.4v-27.2
		c0-5.3-1.3-7.6-5.5-7.6c-3,0-5.2,1.3-7.6,3.6v31.3h-16.4L261.1,242L261.1,242z"/>
	<path class="st1" d="M316.3,297.4c0-3.9,2.5-6.9,7.3-9.1v-0.4c-2.7-1.8-4.8-4.2-4.8-8.2c0-3.3,2.4-6.7,5.7-8.9v-0.4
		c-3.6-2.3-6.5-6.7-6.5-12.2c0-11.8,10-17.3,21.1-17.3c2.8,0,5.7,0.4,8.1,1.2h19.2v11.8h-8.6c0.7,1.2,1.3,3,1.3,4.9
		c0,11.3-8.8,15.8-20.1,15.8c-1.8,0-3.7-0.2-6-0.7c-1.2,0.8-1.5,1.4-1.5,2.8c0,2.1,2.1,2.8,7.4,2.8h8.1c12.5,0,19.8,3.6,19.8,12.4
		c0,10.3-11.4,17.3-29.2,17.3C325.9,309.3,316.3,306.1,316.3,297.4z M351.3,294.8c0-2.5-2.7-2.8-7.4-2.8h-4.8
		c-3.7,0-5.6-0.2-7.3-0.6c-1.6,1.2-2.4,2.1-2.4,3.4c0,3,4.3,4.3,10.8,4.3C346.7,299.2,351.3,297.4,351.3,294.8z M344.9,258.3
		c0-4.3-2.7-6.5-5.8-6.5s-5.7,2.1-5.7,6.5c0,4.6,2.6,6.7,5.7,6.7C342.1,264.9,344.9,262.8,344.9,258.3z"/>
	<path class="st1" d="M30.7,359c0-6.8,4.9-12.4,12.4-12.4c7.4,0,12.4,5.6,12.4,12.4c0,6.9-4.9,12.4-12.4,12.4
		C35.6,371.4,30.7,365.9,30.7,359z"/>
	<path class="st1" d="M90.1,345.5l-15-22.9h17.5l3.9,6.7c1.3,2.7,3.3,5.5,4.7,8.2h0.4c1.1-2.7,2.3-5.5,3.4-8.2l3.2-6.7h17l-15,24.7
		l15.9,22.9h-17.5l-4.3-6.7c-1.6-2.7-3.5-5.5-5.2-8.2h-0.4c-1.3,2.7-2.7,5.4-3.9,8.2l-3.5,6.7h-17L90.1,345.5z"/>
	<path class="st1" d="M131.3,322.6h12.2l1.2,5.7h0.4c1.5-3.6,4.6-6.9,10.1-6.9c3.9,0,6.9,2.7,8,7.6c1.3-4,4.8-7.6,10.3-7.6
		c6.9,0,10.7,6.1,10.7,15.6v33.2h-15.5v-32c0-2-0.4-2.8-1.6-2.8c-1.3,0-2.3,1.2-3.2,3.6v31.3h-12.5v-32c0-2-0.7-2.8-1.9-2.8
		c-1.2,0-2,1.2-2.8,3.6v31.3h-15.5L131.3,322.6L131.3,322.6z"/>
	<path class="st1" d="M204.1,350.6v-33.9h-14.3v-12.8h30.7v47.2c0,5.5,3.8,7,7.1,7c2,0,4.1-0.4,6.9-1.3l3.5,12
		c-5.2,1.5-8.6,2.5-14.8,2.5C210.5,371.4,204.1,363.1,204.1,350.6z"/>
</g>
</svg>
