<?xml version="1.0" encoding="UTF-8"?><svg id="b" xmlns="http://www.w3.org/2000/svg" width="2048" height="2048" viewBox="0 0 2048 2048"><path d="m967.1875,979.86426h-29.25v-22.00781h-39.44531v-22.92188l32.76562-63.63281h35.92969v63.21094h9.28125v23.34375h-9.28125v22.00781Zm-27.91406-45.35156v-20.32031c0-.93652.05859-2.43652.17578-4.5.11621-2.06152.29199-4.71094.52734-7.94531l-4.35938,9.28125c-2.15625,4.54785-4.31348,8.77832-6.46875,12.69141-2.15625,3.91504-4.31348,7.5127-6.46875,10.79297h16.59375Z"/><path d="m1062.46094,926.28613c0,16.96973-3.375,30.46973-10.125,40.5-6.75,9.98438-15.82031,14.97656-27.21094,14.97656-12.3291,0-21.98438-5.03809-28.96875-15.11719-6.9375-10.03027-10.40625-24.04688-10.40625-42.04688,0-17.01562,3.46875-30.46777,10.40625-40.35938,6.98438-9.93652,16.40625-14.90625,28.26562-14.90625,11.95312,0,21.28027,5.04004,27.98438,15.11719,6.70312,10.0791,10.05469,24.02441,10.05469,41.83594Zm-28.96875-.21094c0-20.95312-3.16406-31.42969-9.49219-31.42969-6.28223,0-9.42188,9.37598-9.42188,28.125,0,22.40723,3.06934,33.60938,9.21094,33.60938,3.32812,0,5.77637-2.44824,7.34766-7.34766,1.57031-4.89746,2.35547-12.55078,2.35547-22.95703Z"/><path d="m1140.29688,979.86426h-29.25v-22.00781h-39.44531v-22.92188l32.76562-63.63281h35.92969v63.21094h9.28125v23.34375h-9.28125v22.00781Zm-27.91406-45.35156v-20.32031c0-.93652.05859-2.43652.17578-4.5.11621-2.06152.29199-4.71094.52734-7.94531l-4.35938,9.28125c-2.15625,4.54785-4.31348,8.77832-6.46875,12.69141-2.15625,3.91504-4.31348,7.5127-6.46875,10.79297h16.59375Z"/><path d="m707.10156,1152.66406v-108.5625h27.98438l14.69531,38.10938c.79688,2.25,1.69824,4.8291,2.70703,7.73438,1.00781,2.90723,2.12012,6.25781,3.33984,10.05469l3.02344,9.5625c-1.0791-9.42188-1.89844-17.4834-2.46094-24.1875-.5625-6.70215-.84375-12.32715-.84375-16.875v-24.39844h27.98438v108.5625h-27.98438l-14.76562-39.9375c-1.54688-4.26465-2.94238-8.26172-4.18359-11.98828-1.24219-3.72656-2.33203-7.27734-3.26953-10.65234.6084,7.6416,1.05469,14.29785,1.33594,19.96875.28125,5.67285.42188,10.6416.42188,14.90625v27.70312h-27.98438Z"/><path d="m867.27344,1115.82031c0,11.71973-3.23438,21.04785-9.70312,27.98438-6.46875,6.93848-15.1416,10.40625-26.01562,10.40625-10.6875,0-19.19531-3.53809-25.52344-10.61719-6.28223-7.12402-9.42188-16.68652-9.42188-28.6875,0-11.99902,3.20996-21.63184,9.63281-28.89844,6.37402-7.3125,14.83594-10.96875,25.38281-10.96875,11.10938,0,19.82812,3.63379,26.15625,10.89844,6.32812,7.2666,9.49219,17.22656,9.49219,29.88281Zm-27.35156-.91406c0-2.8125-.1875-5.35449-.5625-7.62891-.37598-2.27246-.91406-4.21875-1.61719-5.83594s-1.54688-2.87012-2.53125-3.76172c-.98438-.88965-2.08594-1.33594-3.30469-1.33594-2.39062,0-4.31348,1.6875-5.76562,5.0625-1.45312,2.95312-2.17969,7.38281-2.17969,13.28906,0,5.81348.72656,10.24316,2.17969,13.28906,1.45215,3.375,3.39844,5.0625,5.83594,5.0625,2.2959,0,4.19434-1.66309,5.69531-4.99219,1.5-3.70215,2.25-8.08594,2.25-13.14844Z"/><path d="m910.375,1152.66406h-28.26562v-53.29688h-8.01562v-22.71094h8.01562v-22.35938h28.26562v22.35938h9.35156v22.71094h-9.35156v53.29688Z"/><path d="m1001.00781,1152.66406h-29.32031v-108.5625h51.82031v25.52344h-22.5v15.82031h20.95312v24.53906h-20.95312v42.67969Z"/><path d="m1102.04688,1115.82031c0,11.71973-3.23438,21.04785-9.70312,27.98438-6.46875,6.93848-15.1416,10.40625-26.01562,10.40625-10.6875,0-19.19531-3.53809-25.52344-10.61719-6.28223-7.12402-9.42188-16.68652-9.42188-28.6875,0-11.99902,3.20996-21.63184,9.63281-28.89844,6.37402-7.3125,14.83594-10.96875,25.38281-10.96875,11.10938,0,19.82812,3.63379,26.15625,10.89844,6.32812,7.2666,9.49219,17.22656,9.49219,29.88281Zm-27.35156-.91406c0-2.8125-.1875-5.35449-.5625-7.62891-.37598-2.27246-.91406-4.21875-1.61719-5.83594s-1.54688-2.87012-2.53125-3.76172c-.98438-.88965-2.08594-1.33594-3.30469-1.33594-2.39062,0-4.31348,1.6875-5.76562,5.0625-1.45312,2.95312-2.17969,7.38281-2.17969,13.28906,0,5.81348.72656,10.24316,2.17969,13.28906,1.45215,3.375,3.39844,5.0625,5.83594,5.0625,2.2959,0,4.19434-1.66309,5.69531-4.99219,1.5-3.70215,2.25-8.08594,2.25-13.14844Z"/><path d="m1112.94531,1076.65625h28.19531v42.82031c0,4.07812.39746,7.05566,1.19531,8.92969.84375,1.54688,2.43652,2.32031,4.78125,2.32031,2.2959,0,3.84277-.77344,4.64062-2.32031.84375-1.54688,1.26562-4.52246,1.26562-8.92969v-42.82031h28.19531v46.61719c0,3.09375-.24609,5.89551-.73828,8.40234-.49219,2.50879-1.26562,4.78125-2.32031,6.82031s-2.41504,3.90234-4.07812,5.58984c-1.66406,1.6875-3.64551,3.23438-5.94141,4.64062-6.1875,3.65625-13.19531,5.48438-21.02344,5.48438-7.92188,0-14.93066-1.82812-21.02344-5.48438-2.34473-1.40625-4.34863-2.94043-6.01172-4.60547-1.66406-1.66309-3.02344-3.52637-4.07812-5.58984-1.05469-2.06152-1.82812-4.34668-2.32031-6.85547-.49219-2.50684-.73828-5.30859-.73828-8.40234v-46.61719Z"/><path d="m1261.16406,1152.66406h-28.19531v-40.21875c0-3.46777-.34082-5.88184-1.01953-7.24219-.67969-1.3584-1.86328-2.03906-3.55078-2.03906-3.9375,0-5.90625,3.72656-5.90625,11.17969v38.32031h-28.19531v-76.00781h28.19531c-.04688,1.87598-.09473,3.61035-.14062,5.20312-.04688,1.59473-.11719,3.07129-.21094,4.42969l-.28125,4.85156c4.5459-10.7334,11.20312-16.10156,19.96875-16.10156,6.09277,0,10.82812,2.27441,14.20312,6.82031,3.4209,4.54785,5.13281,10.87598,5.13281,18.98438v51.82031Z"/><path d="m1313.19531,1152.66406c.0459-.7959.09375-1.70996.14062-2.74219.0459-1.03027.11621-2.22559.21094-3.58594.09375-.84375.16406-2.13184.21094-3.86719-2.71875,4.40723-5.36816,7.47754-7.94531,9.21094-2.53125,1.6875-5.64941,2.53125-9.35156,2.53125-7.64062,0-13.64062-3.4209-18-10.26562-4.31348-6.84277-6.46875-16.3584-6.46875-28.54688,0-12.79688,2.10938-22.71094,6.32812-29.74219,4.21875-7.07715,10.1709-10.61719,17.85938-10.61719,4.21875,0,7.61719.93848,10.19531,2.8125,2.71777,1.87598,5.34375,5.13281,7.875,9.77344-.14062-2.43652-.21094-3.91309-.21094-4.42969l-.28125-7.66406v-41.625h28.26562v118.75781h-28.82812Zm-12.02344-38.32031c0,10.40625,2.32031,15.60938,6.96094,15.60938,4.35938,0,6.53906-5.36621,6.53906-16.10156,0-10.26562-2.10938-15.39844-6.32812-15.39844-4.78125,0-7.17188,5.29785-7.17188,15.89062Z"/></svg>