<?xml version="1.0" encoding="UTF-8"?>
<svg id="b" data-name="Layer0" xmlns="http://www.w3.org/2000/svg" width="2048" height="2048" viewBox="0 0 2048 2048">
  <rect width="2048" height="2048"/>
  <rect x=".98486" y="1889.60509" width="154" height="154" style="fill: #fff;"/>
  <rect x=".98486" y="342.62616" width="154" height="154" style="fill: #fff;"/>
  <rect x="1497.85837" y="1500.03244" width="154" height="154" style="fill: #fff;"/>
  <rect x="447.82276" y="602.87011" width="154" height="154" style="fill: #fff;"/>
  <circle cx="648.47746" cy="1626.85667" r="91.01447" style="fill: #fff;"/>
  <circle cx="1118.58048" cy="131.99541" r="91.01447" style="fill: #fff;"/>
  <circle cx="1587.01764" cy="579.03463" r="91.01447" style="fill: #fff;"/>
  <circle cx="942.98794" cy="1211.01447" r="91.01447" style="fill: #fff;"/>
  <polygon points="1587.01764 1809.10731 1494.06681 1970.10287 1679.96848 1970.10287 1587.01764 1809.10731" style="fill: #fff;"/>
  <polygon points="1955.04917 962.50222 1862.09834 1123.49778 2048 1123.49778 1955.04917 962.50222" style="fill: #fff;"/>
  <polygon points="552.47746 995.99943 459.52663 1156.99499 645.4283 1156.99499 552.47746 995.99943" style="fill: #fff;"/>
  <polygon points="1464.60299 668.52591 1371.65216 829.52148 1557.55383 829.52148 1464.60299 668.52591" style="fill: #fff;"/>
</svg>