<?xml version="1.0" encoding="UTF-8"?><svg id="b" xmlns="http://www.w3.org/2000/svg" width="2048" height="2048" viewBox="0 0 2048 2048"><rect width="2048" height="2048"/><rect x=".98486" y="1889.60509" width="154" height="154" style="fill:#fff;"/><rect x="235.93279" y="1588.60964" width="154" height="154" style="fill:#fff;"/><rect x=".98486" y="342.62616" width="154" height="154" style="fill:#fff;"/><rect x="1497.85837" y="1500.03244" width="154" height="154" style="fill:#fff;"/><rect x="937.57812" y="1413.17762" width="154" height="154" style="fill:#fff;"/><rect x="447.82276" y="602.87011" width="154" height="154" style="fill:#fff;"/><rect x="1665.05533" y="550.99921" width="154" height="154" style="fill:#fff;"/><rect x="1160.67188" y="935.466" width="154" height="154" style="fill:#fff;"/><rect x="1862.09834" y="1626.85667" width="154" height="154" style="fill:#fff;"/><circle cx="648.47746" cy="1626.85667" r="91.01447" style="fill:#fff;"/><circle cx="1352.17853" cy="1772.33863" r="91.01447" style="fill:#fff;"/><circle cx="1118.58048" cy="131.99541" r="91.01447" style="fill:#fff;"/><circle cx="1939.09834" cy="150.1004" r="91.01447" style="fill:#fff;"/><circle cx="1261.16406" cy="770.88457" r="91.01447" style="fill:#fff;"/><circle cx="1587.01764" cy="579.03463" r="91.01447" style="fill:#fff;"/><circle cx="1031.38281" cy="488.02017" r="91.01447" style="fill:#fff;"/><circle cx="235.93279" cy="981.7627" r="91.01447" style="fill:#fff;"/><circle cx="500.46311" cy="488.02017" r="91.01447" style="fill:#fff;"/><circle cx="961.27765" cy="1103.48047" r="91.01447" style="fill:#fff;"/><polygon points="1587.01764 1809.10731 1494.06681 1970.10287 1679.96848 1970.10287 1587.01764 1809.10731" style="fill:#fff;"/><polygon points="922.67969 1782.85532 829.72886 1943.85088 1015.63052 1943.85088 922.67969 1782.85532" style="fill:#fff;"/><polygon points="1955.04917 962.50222 1862.09834 1123.49778 2048 1123.49778 1955.04917 962.50222" style="fill:#fff;"/><polygon points="1651.85837 1252.18205 1558.90754 1413.17762 1744.8092 1413.17762 1651.85837 1252.18205" style="fill:#fff;"/><polygon points="552.47746 995.99943 459.52663 1156.99499 645.4283 1156.99499 552.47746 995.99943" style="fill:#fff;"/><polygon points="500.46311 29.64561 407.51228 190.64117 593.41394 190.64117 500.46311 29.64561" style="fill:#fff;"/><polygon points="1494.06681 223.00987 1401.11598 384.00544 1587.01764 384.00544 1494.06681 223.00987" style="fill:#fff;"/><polygon points="267.32388 1283.41614 174.37305 1444.4117 360.27471 1444.4117 267.32388 1283.41614" style="fill:#fff;"/><polygon points="881.03667 837.6321 788.08584 998.62766 973.98751 998.62766 881.03667 837.6321" style="fill:#fff;"/><polygon points="1342.02344 1076.49721 1249.07261 1237.49277 1434.97427 1237.49277 1342.02344 1076.49721" style="fill:#fff;"/></svg>