<?xml version="1.0" encoding="UTF-8"?><svg id="b" xmlns="http://www.w3.org/2000/svg" width="500.06943" height="295" viewBox="0 0 500.06943 295"><g id="c"><polygon points="109.62971 32.37885 80.1404 32.37885 71.02945 5.34322 61.91849 32.37885 32.42918 32.37885 56.28542 49.09019 47.17321 76.12323 71.02945 59.41447 94.88569 76.12323 85.77347 49.09019 109.62971 32.37885" style="fill:#ffce31; stroke-width:0px;"/><polygon points="89.344 28.94599 94.3942 14.16595 80.96386 23.44416 82.84371 28.94599 89.344 28.94599" style="fill:#ffdf85; stroke-width:0px;"/><polygon points="65.76825 67.14739 71.02816 82.54375 76.29068 67.14739 71.02816 63.51382 65.76825 67.14739" style="fill:#ffdf85; stroke-width:0px;"/><polygon points="95.06455 46.91184 90.14431 50.30995 92.23258 56.42552 108.83584 56.42552 95.06455 46.91184" style="fill:#ffdf85; stroke-width:0px;"/><polygon points="61.09246 23.44416 47.66341 14.16595 52.7149 28.94599 59.21519 28.94599 61.09246 23.44416" style="fill:#ffdf85; stroke-width:0px;"/><polygon points="46.99434 46.91184 33.22177 56.42552 49.82503 56.42552 51.91588 50.30995 46.99434 46.91184" style="fill:#ffdf85; stroke-width:0px;"/><path d="m129.64512,75.50925c-7.96734,0-10.0034.08846-13.27839.35384.35384-4.3375.79663-6.99328,1.85864-10.44519,2.30194-7.34762,6.55099-14.07502,12.74713-19.82887,3.36395-3.09858,6.72791-5.66539,15.75725-11.77358,7.613-5.13414,9.47164-7.43608,9.47164-11.5077,0-4.24904-3.80625-7.08174-9.47164-7.08174-4.24904,0-7.25916,1.41635-9.20626,4.42596-1.23943,1.9476-1.77069,3.71779-2.21298,7.43608l-18.58995-1.9476c1.32789-7.70146,2.92116-11.59667,6.46253-15.75725,5.04568-5.93077,13.10097-9.1173,23.4582-9.1173,11.9505,0,21.0678,3.98317,25.49427,11.15337,1.9471,3.09858,2.92116,6.55099,2.92116,10.35723,0,6.46203-2.65578,11.9505-8.14425,16.46492-2.92116,2.56732-3.80625,3.18703-12.83559,9.47214-7.70146,5.31105-10.97645,8.40913-13.01251,12.30434h20.62551c6.63894,0,10.71107-.17692,14.16348-.61972v16.7308c-5.13414-.4428-8.85243-.61972-15.13754-.61972h-31.0707Z" style="fill:#fff; stroke-width:0px;"/><path d="m193.38129,68.86981c-2.92116-2.92116-5.13414-6.28461-6.46203-9.82548-2.30144-6.28511-3.45241-13.10147-3.45241-20.27167,0-9.29472,2.21298-18.94378,5.57693-24.52072,5.40002-9.02884,14.60578-13.98606,25.75964-13.98606,8.58655,0,16.11109,2.92116,21.5111,8.23221,2.92116,2.92116,5.13414,6.28511,6.46203,9.82598,2.30144,6.28511,3.45241,13.10147,3.45241,20.36013,0,9.29472-2.21298,19.03224-5.57693,24.60918-5.31156,8.85192-14.60628,13.80914-25.84861,13.80914-8.67501,0-16.02212-2.8327-21.42214-8.23271Zm8.23271-30.80532c0,15.84521,4.51442,23.98946,13.27789,23.98946,8.67551,0,13.10147-7.96683,13.10147-23.72408,0-15.13703-4.60338-23.10387-13.18993-23.10387-8.32117,0-13.18943,8.40963-13.18943,22.83849Z" style="fill:#fff; stroke-width:0px;"/><path d="m266.50114,75.50925c-7.96734,0-10.0034.08846-13.27839.35384.35384-4.3375.79663-6.99328,1.85864-10.44519,2.30194-7.34762,6.55099-14.07502,12.74713-19.82887,3.36395-3.09858,6.72791-5.66539,15.75725-11.77358,7.613-5.13414,9.47164-7.43608,9.47164-11.5077,0-4.24904-3.80675-7.08174-9.47164-7.08174-4.24904,0-7.25916,1.41635-9.20626,4.42596-1.23943,1.9476-1.77069,3.71779-2.21298,7.43608l-18.58995-1.9476c1.32789-7.70146,2.92116-11.59667,6.46253-15.75725,5.04568-5.93077,13.10097-9.1173,23.4582-9.1173,11.9505,0,21.0678,3.98317,25.49377,11.15337,1.94811,3.09858,2.92116,6.55099,2.92116,10.35723,0,6.46203-2.65578,11.9505-8.14425,16.46492-2.92116,2.56732-3.80574,3.18703-12.83459,9.47214-7.70196,5.31105-10.97695,8.40913-13.01301,12.30434h20.62551c6.63945,0,10.71057-.17692,14.16348-.61972v16.7308c-5.13363-.4428-8.85293-.61972-15.13754-.61972h-31.0707Z" style="fill:#fff; stroke-width:0px;"/><path d="m339.35462,53.0246c.53176,2.92116,1.06251,4.16059,2.47886,5.66539,2.3904,2.47886,5.93077,3.80675,10.18082,3.80675,6.90382,0,11.24233-3.45241,11.24233-8.85243,0-3.62933-1.77119-6.46203-4.7808-7.613-2.03657-.70817-4.7808-1.15047-8.23271-1.15047s-7.43558.17692-10.88849.53075v-15.22549c3.00961.35384,5.93077.53126,9.38368.53126,8.40963,0,12.57022-2.8327,12.57022-8.49809,0-4.7803-3.36345-7.52454-9.20576-7.52454-6.28561,0-9.47214,2.47886-10.80003,8.14425l-19.1212-2.74424c1.68273-5.48847,3.09807-8.14425,5.93077-11.24233,5.40002-5.84231,13.54427-8.85243,24.3443-8.85243,9.64806,0,17.61539,2.65578,22.66157,7.52454,3.27499,3.27499,4.95672,7.52404,4.95672,12.57022,0,9.38318-5.04518,15.22549-15.22599,17.61539,5.40002.79714,8.32117,2.03606,11.41924,4.69184,3.71829,3.36395,5.84231,7.96683,5.84231,13.10147,0,4.51442-1.23843,8.67501-3.54037,11.77308-1.9471,2.65578-5.04618,5.13464-8.32117,6.63945-4.60288,2.12452-11.77308,3.45191-18.41253,3.45191-7.96633,0-15.93367-1.85864-20.62601-4.95672-4.07112-2.65578-7.16919-6.55099-9.1173-11.41975-.53075-1.23893-.88459-2.3899-1.50481-4.69134l18.76636-3.27549Z" style="fill:#fff; stroke-width:0px;"/><polygon points="465.6895 32.37885 436.20019 32.37885 427.08923 5.34322 417.97828 32.37885 388.48897 32.37885 412.34524 49.09019 403.23296 76.12323 427.08923 59.41447 450.9455 76.12323 441.83323 49.09019 465.6895 32.37885" style="fill:#ffce31; stroke-width:0px;"/><polygon points="445.40375 28.94599 450.45395 14.16595 437.02365 23.44416 438.90347 28.94599 445.40375 28.94599" style="fill:#ffdf85; stroke-width:0px;"/><polygon points="421.828 67.14739 427.08798 82.54375 432.35047 67.14739 427.08798 63.51382 421.828 67.14739" style="fill:#ffdf85; stroke-width:0px;"/><polygon points="451.12431 46.91184 446.20409 50.30995 448.29236 56.42552 464.89563 56.42552 451.12431 46.91184" style="fill:#ffdf85; stroke-width:0px;"/><polygon points="417.15224 23.44416 403.7232 14.16595 408.77472 28.94599 415.275 28.94599 417.15224 23.44416" style="fill:#ffdf85; stroke-width:0px;"/><polygon points="403.05416 46.91184 389.28158 56.42552 405.88485 56.42552 407.9757 50.30995 403.05416 46.91184" style="fill:#ffdf85; stroke-width:0px;"/><path d="m0,128.35844c2.03556.17742,4.07162.26588,9.20626.26588h3.09807c6.19665-8.67501,11.9505-19.20916,13.80914-25.40581l15.13754,3.98367c-.70817,1.15047-.70817,1.23893-1.85915,3.36345-3.71779,7.08174-7.1702,12.74713-10.88799,17.79281,16.11109-.44229,18.32407-.53075,26.99907-1.23893-3.89521-4.7803-5.66539-6.72791-10.09136-11.06541l12.12742-6.55048c10.09136,10.35673,16.02263,17.61589,23.98946,29.21256l-12.30484,7.52404c-2.3899-3.71829-3.09807-4.86926-5.04568-7.6135-16.02212,1.94811-26.7337,2.56732-56.21113,3.62983-2.74424.08846-3.89521.17692-6.01973.44229l-1.9471-14.3404Zm7.52404,58.24719c.35434-3.36345.53126-7.08174.53126-11.77308v-19.20966c0-3.80574-.17692-6.54998-.4428-9.1173,1.9476.17692,4.69184.26538,9.1178.26538h46.56257c4.3375,0,7.08174-.08846,9.1178-.26538-.35434,2.65578-.4428,4.95772-.4428,9.1173v19.20966c0,5.04618.17742,8.23271.53126,11.77308h-14.07502v-3.71729H21.42214v3.71729H7.52404Zm13.80965-16.11058h37.26735v-11.41924H21.33368v11.41924Z" style="fill:#fff; stroke-width:0px;"/><path d="m108.26369,157.65946c-3.01012,11.33079-4.7803,16.37697-8.23271,23.98946-.61972,1.32789-.88509,1.9471-1.68173,3.36345q-.61972.97405-1.06251,2.12502l-11.5077-10.17981c1.50481-1.77119,1.9471-2.47886,3.27499-4.7808,3.36395-6.19615,5.75385-12.57022,8.32117-22.30774l10.88849,7.79042Zm-14.7832-31.69092c6.01923,3.45241,9.5601,5.84231,15.66829,10.71107l-7.43608,11.15387c-6.37357-5.48847-9.20626-7.61249-15.84521-11.68462l7.613-10.18032Zm61.78806,12.92455c4.07213,0,6.01923-.08846,8.49809-.35484-.26538,2.30194-.35434,3.80675-.35434,7.6135v5.84231c0,3.62883.08896,5.48847.35434,7.25866-3.00961-.17692-4.51442-.17692-8.58655-.17692h-30.53995q-.35434,1.32789-.61972,2.74424h36.91351c2.30144,0,4.51442-.08846,6.37357-.17692-.26588,1.23943-.26588,1.68173-.53126,4.42596-.70817,11.24233-2.30144,16.37596-5.57693,18.58944-2.21298,1.50481-6.63894,2.30194-13.45531,2.30194-2.92116,0-7.1702-.08846-10.26827-.17792-.88509-4.69134-1.59377-6.81536-3.62933-11.15286,4.24904.44229,8.58655.70767,12.21588.70767,5.75385,0,6.01923-.26538,6.46203-5.2231h-30.89428c-.35384,1.32789-.53075,2.03657-1.32789,4.51543l-13.63223-1.15097c3.45241-9.73752,5.40002-17.08464,6.19665-23.81254l8.85192.08846h28.6813v-2.8327h-32.13321c-4.24904,0-5.57693.08846-7.87888.26538v-9.64906c2.3904.26638,3.89521.35484,7.87888.35484h4.51442c-1.77018-1.32789-2.3899-1.68173-5.40002-3.54137,2.8327-2.03556,4.7803-4.24904,5.93127-6.55048.97355-2.12452,1.32789-4.16059,1.32789-8.14375h-5.31156c-5.57693,0-7.08174.08846-9.64856.26538v-5.31156l-6.72791,9.20677c-5.75385-5.40002-7.87837-7.08174-14.60628-11.41975l8.23271-9.82548c5.66539,3.54037,8.85243,5.84231,13.10147,9.38318v-4.07213c3.18653.35434,6.10769.53126,10.53365.53126h11.06541c0-2.74424-.08846-3.89521-.35384-5.57693h14.51732c-.35384,1.68173-.4428,2.92116-.4428,5.57693h13.54377c4.51492,0,7.34762-.17692,10.26878-.53126v12.21588c-3.18703-.35384-5.66539-.44229-9.73752-.44229h-7.52404v5.2226l8.94038-4.7803c4.07213,3.71829,6.19665,6.10819,9.38318,10.62261l-9.29472,6.90432c-2.74373-5.04518-4.69134-7.61249-9.02884-12.21538v6.63894c0,2.92116-.97405,4.60338-3.36395,5.84281h7.08174Zm-33.01881-13.98656c-2.92116,6.01923-4.86876,8.67501-9.5601,12.92405-2.8327-3.27549-4.24904-4.42596-8.49809-7.25866,4.24904-3.09858,6.10769-5.31156,8.32117-9.64906l9.73702,3.98367Zm14.16348,13.98656c-.08846-2.65578-.61972-5.04618-1.68173-7.70196-1.06251,3.09858-2.03606,4.69184-4.51492,7.70196h6.19665Zm-.26538-18.23561c-.17692,4.3375-.4428,6.63894-1.15097,9.38318,2.21298.26538,2.74424.26538,3.45241.26538,1.32789,0,1.68173-.35384,1.68173-1.41635v-8.23221h-3.98317Z" style="fill:#fff; stroke-width:0px;"/><path d="m178.10855,129.59787c3.98367.53126,6.81636.70817,14.25244.70817h44.43755c4.24904,0,4.86876-.08846,7.08174-.97355l6.90482,7.43558c-1.06251,1.59327-1.23943,1.94811-2.47886,5.57693-4.60288,13.18943-10.97645,23.10387-19.65145,30.36353-6.72791,5.66539-13.10147,9.1173-25.22889,13.80864-2.30144-5.22209-4.7803-8.85192-9.91444-14.51732,10.62261-2.74424,16.99618-5.57693,23.36975-10.35673,6.46203-4.7808,10.35723-9.82598,13.63223-17.70486h-38.32986c-6.99328,0-8.49809.08846-14.07502.53176v-14.87216Zm7.34762-22.13032c3.45241.53126,6.7274.70817,13.01251.70817h28.23851c6.99328,0,10.79953-.17692,13.89811-.70817v14.87166c-3.36395-.26538-7.52454-.4428-13.63273-.4428h-28.6808c-6.99328,0-8.94089.08896-12.83559.4428v-14.87166Z" style="fill:#fff; stroke-width:0px;"/><path d="m259.28521,136.67961c4.16059.62022,8.94089.79714,18.14715.79714h42.31252c8.85293,0,12.21739-.17692,18.14816-.79714v17.08464c-4.25005-.44229-8.14425-.53075-18.23661-.53075h-42.13561c-9.91444,0-12.83559.08846-18.23561.53075v-17.08464Z" style="fill:#fff; stroke-width:0px;"/><path d="m411.0144,111.89352c-1.23843,2.21298-1.9471,3.89521-3.71729,8.23271-3.62983,8.76347-7.17121,15.93367-11.77308,23.36975,7.70095,6.55099,10.44519,9.20576,19.29712,18.58944l-12.03946,12.57022c-4.86826-6.37407-9.91343-11.86154-16.7308-18.14715-8.40863,10.88849-19.20866,19.82887-34.25773,28.15005-3.00961-5.31156-5.66539-8.58655-11.15387-13.36635,10.97695-5.2231,16.99618-9.11831,23.99047-15.40291,3.62883-3.276,6.63844-6.37407,9.47114-9.82598-10.97695-8.32117-15.84521-11.68512-23.01541-15.75725l10.88849-10.71107c8.05579,4.69184,12.03846,7.43608,20.89038,13.89811,5.13464-8.23271,10.18082-20.18321,11.5077-27.1765l16.64234,5.57693Z" style="fill:#fff; stroke-width:0px;"/><path d="m435.09533,110.47717c11.15286,6.55048,16.90772,10.62261,24.34229,17.35052l-10.44519,13.80965c-7.70095-8.05579-15.22599-13.89811-24.07792-18.67841l10.18082-12.48176Zm-9.29522,54.9717c9.02884-.70767,18.32407-2.92116,26.64524-6.37306,11.15387-4.60288,19.1202-11.24233,25.93656-21.86444,3.71729-5.6659,6.10769-10.53466,8.67501-17.35102,4.3375,5.2231,6.37306,6.99328,13.01251,11.86204-8.05479,17.43898-16.46442,27.88417-28.85772,35.8515-9.5606,6.19615-17.97023,9.47214-34.43566,13.27789-3.45191.79714-3.98266.88559-6.37306,1.59327l-4.60288-16.99618Z" style="fill:#fff; stroke-width:0px;"/><path d="m127.64574,251.67249H50.44522s2.2787,21.34336,6.30213,27.23505c4.51109,6.60838,15.24582,16.09246,32.29684,16.09246,17.05872,0,27.7909-9.4815,32.30071-16.09246,4.02472-5.89169,6.30085-27.23505,6.30085-27.23505Z" style="fill:#e0dac6; stroke-width:0px;"/><path d="m127.64574,251.67249c0,7.33663-17.27748,13.28621-38.60155,13.28621-21.31505,0-38.59898-5.94959-38.59898-13.28621,0-7.3392,17.28392-13.28621,38.59898-13.28621,21.32407,0,38.60155,5.94701,38.60155,13.28621Z" style="fill:#f9f3d9; stroke-width:0px;"/><path d="m126.3732,251.44475c0,6.68041-16.70875,12.08831-37.32901,12.08831-20.6164,0-37.32389-5.40661-37.32389-12.08831,0-6.67271,16.70621-12.07804,37.32389-12.07804,20.61897.00129,37.32901,5.40664,37.32901,12.07804Z" style="fill:#e0dac6; stroke-width:0px;"/><path d="m89.04419,243.58959c-18.39173,0-33.66073,4.30264-36.74489,9.96787,3.08287,5.67168,18.35316,9.9756,36.74489,9.9756,18.39431,0,33.66585-4.30392,36.75001-9.9756-3.08416-5.66524-18.3557-9.96787-36.75001-9.96787Z" style="fill:#f2b200; stroke-width:0px;"/><path d="m89.04419,275.45155c16.96354,0,31.32411-4.15339,36.50426-9.91513.59958-3.07901,1.07825-6.12845,1.42307-8.57697-3.35437,6.16059-19.05052,10.82221-37.92862,10.82221-18.86783,0-34.56655-4.66033-37.92605-10.82224.3474,2.45112.82732,5.50054,1.42562,8.57957,5.18534,5.76174,19.54848,9.91255,36.50172,9.91255Z" style="fill:#b3682a; stroke-width:0px;"/><path d="m109.12663,259.07474l-.30238-3.17164.97917-.0785c5.20456-.40915,7.16162-2.28256,7.25812-3.76095.10552-1.64051-1.83738-3.20899-4.61918-3.72878-.79773-.14799-1.56072-.2213-2.32886-.2213-2.53091,0-4.68867.80285-7.18609,1.73312-3.29777,1.22749-7.03424,2.6184-12.59013,2.6184-3.28102,0-6.81165-1.04348-10.55074-2.14745-3.78153-1.11683-7.69304-2.27097-11.25583-2.27097-2.45882,0-4.52652.54809-6.31756,1.67522-1.00233.6292-2.62355,1.82582-2.21697,2.77022.7257,1.68942,5.36801,3.34536,9.36958,3.34536.48508,0,.94057-.02573,1.35874-.07721l.93542-.11579.46834,3.15364-.98429.11965c-.51596.06433-1.08469.09521-1.68813.09521-4.25376,0-10.95088-1.64437-12.52193-5.3011-.56484-1.31627-.86979-3.93338,3.46118-6.65468,2.33273-1.4694,4.98973-2.18223,8.12019-2.18223,4.1238,0,8.43932,1.27512,12.24789,2.39967,3.49589,1.0332,6.79749,2.00848,9.57414,2.00848,4.93438,0,8.36339-1.27766,11.38837-2.40479,2.57335-.95728,5.23547-1.94933,8.39041-1.94933.98301,0,1.95188.09138,2.96064.28052,4.50723.84407,7.50516,3.74421,7.29029,7.05228-.1827,2.8757-2.98122,6.15801-10.29212,6.73702l-.94823.07596Z" style="fill:#ffe299; stroke-width:0px;"/><path d="m98.97346,258.7325c-2.92461,0-5.93155-.69611-8.93724-2.06641-6.50801-2.97223-11.81684-3.595-15.12359-3.595-4.12123,0-6.48612.90196-7.3109,1.29054l-.80546.37828-1.60062-2.7895.94701-.44647c1.10523-.51982,4.35023-1.77691,9.78389-1.60062,5.01671.16338,10.24449,1.47195,15.53529,3.88704,2.55535,1.16702,5.07979,1.75759,7.50261,1.75759,4.2383,0,7.91434-1.87341,10.3513-5.27666l.51209-.71797,2.83197,1.66624-.61375.85823c-2.37777,3.3222-5.71283,5.50569-9.64749,6.31373-1.10395.22646-2.2568.34099-3.42511.34099Z" style="fill:#ffe299; stroke-width:0px;"/><path d="m90.40679,260.76671l-.80417-.38085c-2.15006-1.01904-4.43262-1.53628-6.78338-1.53628-3.95395,0-6.77691,1.47968-6.80392,1.4951l-.77329.41173-1.7885-2.68399.93155-.50311c.36543-.19687,3.70177-1.92357,8.40586-1.92357,2.85641,0,5.64337.63303,8.28103,1.88368l.94572.44905-1.61089,2.78825Z" style="fill:#ffe299; stroke-width:0px;"/><path d="m76.69597,231.45752l-1.56974-2.92587.85047-.45549c2.99538-1.60577,4.42361-7.24013,4.43774-7.29676l.22646-.93925,3.22828.77587-.22391.93667c-.06945.2895-1.74857,7.11661-6.09883,9.45191l-.85047.45291Z" style="fill:#ffe299; stroke-width:0px;"/><path d="m90.61264,233.46217l-2.75734-1.83609.53138-.80417c.02186-.03088,2.11145-3.21669,2.58237-6.2378l.14924-.95342,3.28231.51209-.14924.95342c-.59703,3.80728-3.00054,7.41641-3.10348,7.56823l-.53525.79773Z" style="fill:#ffe299; stroke-width:0px;"/><path d="m85.49167,232.23597l-2.75734-1.83609.53141-.80417c.02186-.03088,2.11142-3.21669,2.58234-6.2378l.14927-.95342,3.28228.51209-.14924.95342c-.597,3.80728-3.00054,7.41641-3.10348,7.56823l-.53525.79773Z" style="fill:#ffe299; stroke-width:0px;"/><polygon points="127.64574 230.60705 75.42987 220.81543 75.15454 222.19346 127.09247 234.6073 127.64574 230.60705" style="fill:#d3976e; stroke-width:0px;"/><polygon points="124.6748 242.3145 74.95767 223.61653 74.44429 224.92764 123.43703 246.15779 124.6748 242.3145" style="fill:#d3976e; stroke-width:0px;"/><path d="m80.23948,231.19761c-1.01649,0-1.9815-.48508-2.71619-1.36515-1.95703-2.34432-.97785-6.86829.09779-9.16885,1.10913-2.3675,2.39709-2.86414,3.28231-2.86414.91867,0,1.70613.35512,2.21952,1.00104.81061,1.01646.61246,2.33659.53267,2.71615l-2.7715-.10036c-.03858.0785-.23286.60734-.27533.69869-.9946,2.16417-1.12713,4.88164-.53653,5.58931.10294.12352.18012.16985.20199.17758-.04501-.01674.0965.0643.27537-.30882l3.02626,1.20692c-.66266,1.38572-1.70742,2.23623-2.94651,2.3932-.12864.01674-.26117.02444-.38984.02444Z" style="fill:#ffe299; stroke-width:0px;"/><path d="m85.79662,233.15979c-1.04222,0-2.03295-.52494-2.71747-1.44236-2.64924-3.55378-1.16699-8.33892.38987-10.52244,1.11042-1.55428,2.18477-1.8811,2.89116-1.8811.23934,0,.47478.03603.70252.10938.85179.27533,2.28385.92769,1.98279,3.94494l-3.01725-.56487c-.76431,1.5955-1.46683,5.34485-.22388,7.04841l2.91044,1.27383c-.50952,1.15286-1.44751,1.88625-2.57464,2.01492-.12609.01288-.23415.01929-.34353.01929Z" style="fill:#ffe299; stroke-width:0px;"/><path d="m90.91631,247.48049c.9727-2.70588-1.52086-7.15905-2.42153-9.41846-1.64051-4.11607-1.37802-15.00648,1.68685-17.14753.88522-.61632,1.92486-.73211,2.7689-.31909.89295.43875,1.8245,1.96733,1.49256,3.78539l-2.88343-.54169c-.82607,2.26199-1.34074,10.41821.23673,13.87423,1.09883,2.40608,3.31319,6.36647,2.06898,10.37574-.80675,2.60165-3.6413,1.31755-2.94905-.60859Z" style="fill:#ffe299; stroke-width:0px;"/><path d="m148.63313,214.13848c3.18653.53075,5.48797.61921,10.62211.61921h11.24233c6.28511,0,7.43608,0,10.97695-.35384-.4428,4.69134-.61972,8.40963-.61972,14.25194v46.38566c0,5.31156.17692,9.02884.70817,13.36635h-19.29762c.53126-4.07213.70817-8.23271.70817-13.36635v-45.14622h-3.54087c-3.45241,0-6.90482.17692-10.79953.61921v-16.37596Z" style="fill:#fff; stroke-width:0px;"/><path d="m227.5958,281.76936c-2.92116-2.92116-5.13414-6.28561-6.46203-9.82598-2.30144-6.28561-3.45241-13.10197-3.45241-20.27217,0-9.29422,2.21298-18.94328,5.57693-24.52021,5.40002-9.02884,14.60628-13.98656,25.75964-13.98656,8.58655,0,16.11109,2.92116,21.5111,8.23271,2.92116,2.92116,5.13414,6.28461,6.46203,9.82598,2.30144,6.28461,3.45241,13.10097,3.45241,20.35963,0,9.29522-2.21298,19.03274-5.57693,24.60968-5.31156,8.85192-14.60628,13.80864-25.84861,13.80864-8.67501,0-16.02212-2.8327-21.42214-8.23171Zm8.23271-30.80582c0,15.84521,4.51442,23.98946,13.27789,23.98946,8.67551,0,13.10147-7.96734,13.10147-23.72408,0-15.13754-4.60338-23.10387-13.18993-23.10387-8.32067,0-13.18943,8.40963-13.18943,22.83849Z" style="fill:#fff; stroke-width:0px;"/><path d="m307.09023,214.13848c3.18653.53075,5.48747.61921,10.62211.61921h11.24233c6.28461,0,7.43658,0,10.97695-.35384-.44229,4.69134-.61921,8.40963-.61921,14.25194v46.38566c0,5.31156.17692,9.02884.70767,13.36635h-19.29812c.53176-4.07213.70868-8.23271.70868-13.36635v-45.14622h-3.54137c-3.45191,0-6.90382.17692-10.79903.61921v-16.37596Z" style="fill:#fff; stroke-width:0px;"/><path d="m447.67862,251.67249h-77.20053s2.2787,21.34336,6.30213,27.23505c4.51109,6.60838,15.24585,16.09246,32.29687,16.09246,17.05869,0,27.79087-9.4815,32.30064-16.09246,4.02476-5.89169,6.30088-27.23505,6.30088-27.23505Z" style="fill:#e0dac6; stroke-width:0px;"/><path d="m447.67862,251.67249c0,7.33663-17.27751,13.28621-38.60152,13.28621-21.31509,0-38.59901-5.94959-38.59901-13.28621,0-7.3392,17.28392-13.28621,38.59901-13.28621,21.32401,0,38.60152,5.94701,38.60152,13.28621Z" style="fill:#f9f3d9; stroke-width:0px;"/><path d="m446.40608,251.44475c0,6.68041-16.70875,12.08831-37.32904,12.08831-20.6164,0-37.32383-5.40661-37.32383-12.08831,0-6.67271,16.70617-12.07804,37.32383-12.07804,20.61904.00129,37.32904,5.40664,37.32904,12.07804Z" style="fill:#e0dac6; stroke-width:0px;"/><path d="m409.0771,243.58959c-18.39179,0-33.66076,4.30264-36.74489,9.96787,3.08287,5.67168,18.35309,9.9756,36.74482,9.9756,18.39437,0,33.66591-4.30392,36.75004-9.9756-3.08413-5.66524-18.35567-9.96787-36.74998-9.96787Z" style="fill:#f2b200; stroke-width:0px;"/><path d="m409.0771,275.45155c16.96351,0,31.32408-4.15339,36.50426-9.91513.59955-3.07901,1.07822-6.12845,1.42301-8.57697-3.35434,6.16059-19.05052,10.82221-37.92859,10.82221-18.86783,0-34.56652-4.66033-37.92608-10.82224.34743,2.45112.82735,5.50054,1.42565,8.57957,5.18534,5.76174,19.54848,9.91255,36.50175,9.91255Z" style="fill:#b3682a; stroke-width:0px;"/><path d="m429.15948,259.07474l-.30238-3.17164.97921-.0785c5.20456-.40915,7.16159-2.28256,7.25809-3.76095.10555-1.64051-1.83734-3.20899-4.61915-3.72878-.7977-.14799-1.56072-.2213-2.3289-.2213-2.53088,0-4.68864.80285-7.18609,1.73312-3.29773,1.22749-7.03424,2.6184-12.59007,2.6184-3.28102,0-6.81172-1.04348-10.55074-2.14745-3.78156-1.11683-7.69304-2.27097-11.25583-2.27097-2.45888,0-4.52655.54809-6.31759,1.67522-1.00233.6292-2.62355,1.82582-2.21694,2.77022.72564,1.68942,5.36797,3.34536,9.36955,3.34536.48508,0,.94057-.02573,1.35874-.07721l.93542-.11579.46837,3.15364-.98436.11965c-.51593.06433-1.08463.09521-1.68807.09521-4.25376,0-10.95094-1.64437-12.52197-5.3011-.56487-1.31627-.86976-3.93338,3.46114-6.65468,2.33279-1.4694,4.98976-2.18223,8.12025-2.18223,4.12377,0,8.43928,1.27512,12.24786,2.39967,3.49589,1.0332,6.79752,2.00848,9.57411,2.00848,4.93441,0,8.36339-1.27766,11.3884-2.40479,2.57335-.95728,5.23547-1.94933,8.39041-1.94933.98304,0,1.95188.09138,2.96061.28052,4.50726.84407,7.50519,3.74421,7.29032,7.05228-.1827,2.8757-2.98122,6.15801-10.29215,6.73702l-.94823.07596Z" style="fill:#ffe299; stroke-width:0px;"/><path d="m419.00636,258.7325c-2.92461,0-5.93159-.69611-8.93724-2.06641-6.50801-2.97223-11.81687-3.595-15.12359-3.595-4.12126,0-6.48615.90196-7.31093,1.29054l-.80543.37828-1.60062-2.7895.94698-.44647c1.10523-.51982,4.35026-1.77691,9.78389-1.60062,5.01671.16338,10.24452,1.47195,15.53529,3.88704,2.55532,1.16702,5.07979,1.75759,7.50261,1.75759,4.2383,0,7.91431-1.87341,10.35133-5.27666l.51209-.71797,2.83194,1.66624-.61375.85823c-2.37777,3.3222-5.71283,5.50569-9.64749,6.31373-1.10391.22646-2.25683.34099-3.42508.34099Z" style="fill:#ffe299; stroke-width:0px;"/><path d="m410.43967,260.76671l-.80417-.38085c-2.15003-1.01904-4.43262-1.53628-6.78338-1.53628-3.95395,0-6.77691,1.47968-6.80392,1.4951l-.77332.41173-1.78847-2.68399.93158-.50311c.3654-.19687,3.70177-1.92357,8.4058-1.92357,2.85644,0,5.6434.63303,8.28109,1.88368l.94566.44905-1.61086,2.78825Z" style="fill:#ffe299; stroke-width:0px;"/><path d="m396.72885,231.45752l-1.56977-2.92587.85054-.45549c2.99535-1.60577,4.42358-7.24013,4.43771-7.29676l.22649-.93925,3.22825.77587-.22391.93667c-.06949.2895-1.74857,7.11661-6.09883,9.45191l-.85047.45291Z" style="fill:#ffe299; stroke-width:0px;"/><path d="m410.64555,233.46217l-2.75737-1.83609.53138-.80417c.02186-.03088,2.11145-3.21669,2.5824-6.2378l.14921-.95342,3.28234.51209-.14927.95342c-.59703,3.80728-3.00057,7.41641-3.10348,7.56823l-.53521.79773Z" style="fill:#ffe299; stroke-width:0px;"/><path d="m405.52454,232.23597l-2.75731-1.83609.53138-.80417c.02186-.03088,2.11139-3.21669,2.58234-6.2378l.14927-.95342,3.28228.51209-.14921.95342c-.59703,3.80728-3.00057,7.41641-3.10348,7.56823l-.53528.79773Z" style="fill:#ffe299; stroke-width:0px;"/><polygon points="447.67862 230.60705 395.46278 220.81543 395.18741 222.19346 447.12537 234.6073 447.67862 230.60705" style="fill:#d3976e; stroke-width:0px;"/><polygon points="444.7077 242.3145 394.99051 223.61653 394.47716 224.92764 443.46991 246.15779 444.7077 242.3145" style="fill:#d3976e; stroke-width:0px;"/><path d="m400.27235,231.19761c-1.01646,0-1.98147-.48508-2.71615-1.36515-1.95709-2.34432-.97789-6.86829.09776-9.16885,1.10913-2.3675,2.39706-2.86414,3.28234-2.86414.91864,0,1.7061.35512,2.21945,1.00104.81064,1.01646.61249,2.33659.5327,2.71615l-2.7715-.10036c-.03858.0785-.2329.60734-.2753.69869-.9946,2.16417-1.12716,4.88164-.5366,5.58931.10297.12352.18018.16985.20205.17758-.04505-.01674.0965.0643.2753-.30882l3.02626,1.20692c-.66263,1.38572-1.70742,2.23623-2.94647,2.3932-.12867.01674-.26117.02444-.38984.02444Z" style="fill:#ffe299; stroke-width:0px;"/><path d="m405.8295,233.15979c-1.04222,0-2.03292-.52494-2.71747-1.44236-2.64924-3.55378-1.16699-8.33892.3899-10.52244,1.11039-1.55428,2.18477-1.8811,2.89112-1.8811.2393,0,.47478.03603.70252.10938.85179.27533,2.28385.92769,1.98279,3.94494l-3.01728-.56487c-.76428,1.5955-1.4668,5.34485-.22385,7.04841l2.91047,1.27383c-.50958,1.15286-1.44757,1.88625-2.57467,2.01492-.12609.01288-.23415.01929-.34353.01929Z" style="fill:#ffe299; stroke-width:0px;"/><path d="m410.94919,247.48049c.97273-2.70588-1.52089-7.15905-2.42156-9.41846-1.64051-4.11607-1.37802-15.00648,1.68688-17.14753.88522-.61632,1.92486-.73211,2.76893-.31909.89295.43875,1.82447,1.96733,1.49249,3.78539l-2.8834-.54169c-.82604,2.26199-1.34071,10.41821.23673,13.87423,1.09883,2.40608,3.31319,6.36647,2.06898,10.37574-.80675,2.60165-3.64127,1.31755-2.94905-.60859Z" style="fill:#ffe299; stroke-width:0px;"/></g></svg>