<?xml version="1.0" encoding="UTF-8"?><svg id="c" xmlns="http://www.w3.org/2000/svg" width="500" height="90" viewBox="0 0 500 90"><path d="m128.60068,42.59061H51.41087s2.27838,21.34039,6.30126,27.23127c4.51047,6.60746,15.2437,16.09022,32.29236,16.09022,17.05635,0,27.78704-9.48019,32.29622-16.09022,4.02417-5.89087,6.29997-27.23127,6.29997-27.23127Z" style="fill:#e0dac6; stroke-width:0px;"/><path d="m128.60068,42.59061c0,7.33561-17.27508,13.28437-38.59619,13.28437-21.31209,0-38.59362-5.94876-38.59362-13.28437,0-7.33818,17.28152-13.28437,38.59362-13.28437,21.32111,0,38.59619,5.94618,38.59619,13.28437Z" style="fill:#f9f3d9; stroke-width:0px;"/><path d="m127.32832,42.3629c0,6.67948-16.70643,12.08663-37.32383,12.08663-20.61354,0-37.31871-5.40586-37.31871-12.08663,0-6.67179,16.70389-12.07636,37.31871-12.07636,20.61611.00129,37.32383,5.40589,37.32383,12.07636Z" style="fill:#e0dac6; stroke-width:0px;"/><path d="m90.00449,34.50883c-18.38918,0-33.65606,4.30204-36.73979,9.96649,3.08244,5.67089,18.35061,9.97421,36.73979,9.97421,18.39175,0,33.66118-4.30333,36.74491-9.97421-3.08373-5.66445-18.35315-9.96649-36.74491-9.96649Z" style="fill:#f2b200; stroke-width:0px;"/><path d="m90.00449,66.36637c16.96119,0,31.31976-4.15282,36.4992-9.91375.5995-3.07858,1.0781-6.1276,1.42287-8.57578-3.35391,6.15973-19.04788,10.82071-37.92336,10.82071-18.86521,0-34.56176-4.65969-37.92078-10.82074.34735,2.45078.82721,5.49977,1.42542,8.57838,5.18462,5.76094,19.54577,9.91118,36.49665,9.91118Z" style="fill:#b3682a; stroke-width:0px;"/><path d="m110.08414,49.99183l-.30234-3.1712.97904-.07849c5.20384-.4091,7.16063-2.28224,7.25712-3.76043.1055-1.64028-1.83712-3.20855-4.61854-3.72827-.79762-.14797-1.56051-.22127-2.32854-.22127-2.53056,0-4.68802.80274-7.1851,1.73288-3.29731,1.22732-7.03327,2.61803-12.58838,2.61803-3.28057,0-6.81071-1.04333-10.54927-2.14716-3.781-1.11667-7.69197-2.27065-11.25427-2.27065-2.45848,0-4.52589.54802-6.31668,1.67499-1.00219.62911-2.62318,1.82556-2.21666,2.76983.7256,1.68919,5.36726,3.34489,9.36828,3.34489.48501,0,.94044-.02572,1.35855-.0772l.93529-.11577.46827,3.1532-.98416.11964c-.51589.06432-1.08454.0952-1.6879.0952-4.25317,0-10.94936-1.64415-12.5202-5.30036-.56476-1.31608-.86967-3.93283,3.4607-6.65376,2.3324-1.4692,4.98904-2.18192,8.11906-2.18192,4.12323,0,8.43814,1.27494,12.24619,2.39934,3.4954,1.03306,6.79654,2.0082,9.57281,2.0082,4.9337,0,8.36223-1.27748,11.38678-2.40445,2.57299-.95715,5.23475-1.94906,8.38924-1.94906.98287,0,1.95161.09137,2.96023.28048,4.5066.84395,7.50411,3.74369,7.28928,7.0513-.18267,2.8753-2.9808,6.15716-10.29069,6.73608l-.9481.07595Z" style="fill:#ffe299; stroke-width:0px;"/><path d="m99.93238,49.64964c-2.9242,0-5.93073-.69601-8.936-2.06612-6.50711-2.97182-11.8152-3.5945-15.12149-3.5945-4.12065,0-6.48522.90184-7.30988,1.29036l-.80535.37822-1.60039-2.78912.94688-.44641c1.10508-.51975,4.34962-1.77666,9.78253-1.60039,5.01602.16336,10.24307,1.47174,15.53313,3.8865,2.555,1.16686,5.07909,1.75734,7.50157,1.75734,4.23771,0,7.91324-1.87315,10.34986-5.27592l.51202-.71788,2.83158,1.66601-.61366.85811c-2.37744,3.32174-5.71203,5.50492-9.64615,6.31285-1.10379.22642-2.25649.34094-3.42464.34094Z" style="fill:#ffe299; stroke-width:0px;"/><path d="m91.3669,51.68356l-.80406-.3808c-2.14976-1.0189-4.43201-1.53607-6.78244-1.53607-3.9534,0-6.77597,1.47947-6.80298,1.49489l-.77319.41167-1.78825-2.68361.93142-.50304c.36538-.19684,3.70125-1.92331,8.40469-1.92331,2.85602,0,5.64259.63295,8.27988,1.88342l.94559.44899-1.61067,2.78786Z" style="fill:#ffe299; stroke-width:0px;"/><path d="m77.65799,22.37845l-1.56952-2.92546.85036-.45542c2.99497-1.60555,4.42299-7.23912,4.43713-7.29575l.22642-.93912,3.22783.77576-.22388.93654c-.06944.28946-1.74833,7.11562-6.09798,9.4506l-.85036.45285Z" style="fill:#ffe299; stroke-width:0px;"/><path d="m91.57272,24.38282l-2.75695-1.83583.53131-.80406c.02186-.03087,2.11116-3.21624,2.58201-6.23693l.14922-.95328,3.28185.51202-.14922.95328c-.59695,3.80676-3.00012,7.41539-3.10305,7.56718l-.53517.79762Z" style="fill:#ffe299; stroke-width:0px;"/><path d="m86.45246,23.15679l-2.75695-1.83583.53134-.80406c.02186-.03087,2.11113-3.21624,2.58198-6.23693l.14925-.95328,3.28182.51202-.14922.95328c-.59692,3.80676-3.00012,7.41539-3.10305,7.56718l-.53517.79762Z" style="fill:#ffe299; stroke-width:0px;"/><polygon points="128.60068 21.52809 76.39206 11.73784 76.11676 13.11567 128.04748 25.52779 128.60068 21.52809" style="fill:#d3976e; stroke-width:0px;"/><polygon points="125.63015 33.23393 75.91993 14.53854 75.40662 15.84948 124.39256 37.07667 125.63015 33.23393" style="fill:#d3976e; stroke-width:0px;"/><path d="m81.201,22.11857c-1.01635,0-1.98122-.48501-2.71581-1.36496-1.95676-2.34399-.97772-6.86734.09778-9.16758,1.10898-2.36717,2.39676-2.86374,3.28185-2.86374.91854,0,1.7059.35507,2.21921,1.0009.8105,1.01632.61237,2.33627.5326,2.71578l-2.77112-.10035c-.03857.07849-.23283.60725-.2753.69859-.99446,2.16387-1.12697,4.88096-.53646,5.58853.10293.1235.1801.16983.20196.17755-.04501-.01674.09649.06429.27533-.30878l3.02584,1.20675c-.66256,1.38553-1.70718,2.23592-2.9461,2.39287-.12862.01674-.26113.02444-.38978.02444Z" style="fill:#ffe299; stroke-width:0px;"/><path d="m86.75737,24.08048c-1.04207,0-2.03267-.52487-2.7171-1.44216-2.64888-3.55329-1.16683-8.33776.38981-10.52097,1.11026-1.55407,2.18447-1.88084,2.89075-1.88084.2393,0,.47471.03603.70242.10936.85168.2753,2.28353.92756,1.98251,3.94439l-3.01683-.56479c-.7642,1.59527-1.46663,5.34411-.22385,7.04743l2.91004,1.27365c-.50945,1.1527-1.44731,1.88599-2.57428,2.01464-.12607.01288-.23412.01928-.34348.01928Z" style="fill:#ffe299; stroke-width:0px;"/><path d="m91.87635,38.3992c.97257-2.70551-1.52065-7.15805-2.4212-9.41715-1.64028-4.1155-1.37783-15.0044,1.68661-17.14515.88509-.61624,1.92459-.73201,2.76851-.31905.89282.43868,1.82424,1.96706,1.49235,3.78486l-2.88303-.54161c-.82595,2.26167-1.34055,10.41676.2367,13.87231,1.09867,2.40574,3.31273,6.36558,2.0687,10.3743-.80664,2.60129-3.64079,1.31737-2.94864-.60851Z" style="fill:#ffe299; stroke-width:0px;"/><path d="m149.58516,5.06181c3.18609.53068,5.48721.61913,10.62063.61913h11.24077c6.28424,0,7.43505,0,10.97543-.35379-.44274,4.69069-.61963,8.40846-.61963,14.24996v46.37922c0,5.31082.17689,9.02759.70808,13.36449h-19.29494c.53118-4.07156.70808-8.23157.70808-13.36449V20.81637h-3.54038c-3.45193,0-6.90386.17689-10.79803.61913V5.06181Z" style="fill:#fff; stroke-width:0px;"/><path d="m228.53686,72.6833c-2.92075-2.92075-5.13342-6.28474-6.46113-9.82461-2.30112-6.28474-3.45193-13.10016-3.45193-20.26936,0-9.29293,2.21267-18.94065,5.57616-24.51681,5.39927-9.02759,14.60425-13.98462,25.75607-13.98462,8.58536,0,16.10885,2.92075,21.50812,8.23157,2.92075,2.92075,5.13342,6.28373,6.46113,9.82461,2.30112,6.28373,3.45193,13.09915,3.45193,20.3568,0,9.29393-2.21267,19.0301-5.57616,24.60626-5.31082,8.8507-14.60425,13.80672-25.84502,13.80672-8.6738,0-16.0199-2.8323-21.41917-8.23056Zm8.23157-30.80155c0,15.84301,4.51379,23.98613,13.27604,23.98613,8.67431,0,13.09965-7.96623,13.09965-23.72079,0-15.13543-4.60274-23.10066-13.1881-23.10066-8.31951,0-13.1876,8.40846-13.1876,22.83532Z" style="fill:#fff; stroke-width:0px;"/><path d="m308.02025,5.06181c3.18609.53068,5.48671.61913,10.62063.61913h11.24077c6.28373,0,7.43555,0,10.97543-.35379-.44223,4.69069-.61913,8.40846-.61913,14.24996v46.37922c0,5.31082.17689,9.02759.70757,13.36449h-19.29544c.53169-4.07156.70858-8.23157.70858-13.36449V20.81637h-3.54088c-3.45143,0-6.90286.17689-10.79753.61913V5.06181Z" style="fill:#fff; stroke-width:0px;"/><path d="m448.58913,42.59061h-77.18981s2.27838,21.34039,6.30126,27.23127c4.51047,6.60746,15.24373,16.09022,32.29239,16.09022,17.05632,0,27.78701-9.48019,32.29616-16.09022,4.0242-5.89087,6.3-27.23127,6.3-27.23127Z" style="fill:#e0dac6; stroke-width:0px;"/><path d="m448.58913,42.59061c0,7.33561-17.27511,13.28437-38.59616,13.28437-21.31213,0-38.59365-5.94876-38.59365-13.28437,0-7.33818,17.28152-13.28437,38.59365-13.28437,21.32105,0,38.59616,5.94618,38.59616,13.28437Z" style="fill:#f9f3d9; stroke-width:0px;"/><path d="m447.31676,42.3629c0,6.67948-16.70643,12.08663-37.32386,12.08663-20.61354,0-37.31865-5.40586-37.31865-12.08663,0-6.67179,16.70385-12.07636,37.31865-12.07636,20.61617.00129,37.32386,5.40589,37.32386,12.07636Z" style="fill:#e0dac6; stroke-width:0px;"/><path d="m409.99296,34.50883c-18.38924,0-33.65609,4.30204-36.73979,9.96649,3.08244,5.67089,18.35055,9.97421,36.73972,9.97421,18.39182,0,33.66124-4.30333,36.74494-9.97421-3.0837-5.66445-18.35312-9.96649-36.74487-9.96649Z" style="fill:#f2b200; stroke-width:0px;"/><path d="m409.99296,66.36637c16.96115,0,31.31973-4.15282,36.4992-9.91375.59946-3.07858,1.07807-6.1276,1.42281-8.57578-3.35387,6.15973-19.04788,10.82071-37.92333,10.82071-18.86521,0-34.56172-4.65969-37.92081-10.82074.34738,2.45078.82724,5.49977,1.42545,8.57838,5.18462,5.76094,19.54577,9.91118,36.49668,9.91118Z" style="fill:#b3682a; stroke-width:0px;"/><path d="m430.07255,49.99183l-.30234-3.1712.97907-.07849c5.20384-.4091,7.1606-2.28224,7.25709-3.76043.10553-1.64028-1.83709-3.20855-4.61851-3.72827-.79759-.14797-1.56051-.22127-2.32857-.22127-2.53053,0-4.68799.80274-7.1851,1.73288-3.29728,1.22732-7.03327,2.61803-12.58832,2.61803-3.28057,0-6.81077-1.04333-10.54927-2.14716-3.78103-1.11667-7.69197-2.27065-11.25427-2.27065-2.45854,0-4.52592.54802-6.31671,1.67499-1.00219.62911-2.62318,1.82556-2.21663,2.76983.72554,1.68919,5.36723,3.34489,9.36825,3.34489.48501,0,.94044-.02572,1.35855-.0772l.93529-.11577.4683,3.1532-.98422.11964c-.51586.06432-1.08448.0952-1.68784.0952-4.25317,0-10.94942-1.64415-12.52023-5.30036-.56479-1.31608-.86964-3.93283,3.46066-6.65376,2.33247-1.4692,4.98907-2.18192,8.11913-2.18192,4.1232,0,8.43811,1.27494,12.24616,2.39934,3.4954,1.03306,6.79657,2.0082,9.57278,2.0082,4.93373,0,8.36223-1.27748,11.38682-2.40445,2.57299-.95715,5.23475-1.94906,8.38924-1.94906.9829,0,1.95161.09137,2.9602.28048,4.50663.84395,7.50415,3.74369,7.28931,7.0513-.18267,2.8753-2.9808,6.15716-10.29072,6.73608l-.9481.07595Z" style="fill:#ffe299; stroke-width:0px;"/><path d="m419.92085,49.64964c-2.9242,0-5.93076-.69601-8.936-2.06612-6.50711-2.97182-11.81523-3.5945-15.12149-3.5945-4.12068,0-6.48525.90184-7.30992,1.29036l-.80532.37822-1.60039-2.78912.94684-.44641c1.10508-.51975,4.34965-1.77666,9.78253-1.60039,5.01602.16336,10.2431,1.47174,15.53313,3.8865,2.55497,1.16686,5.07909,1.75734,7.50157,1.75734,4.23771,0,7.91321-1.87315,10.34989-5.27592l.51202-.71788,2.83155,1.66601-.61366.85811c-2.37744,3.32174-5.71203,5.50492-9.64615,6.31285-1.10376.22642-2.25652.34094-3.42461.34094Z" style="fill:#ffe299; stroke-width:0px;"/><path d="m411.35534,51.68356l-.80406-.3808c-2.14973-1.0189-4.43201-1.53607-6.78244-1.53607-3.9534,0-6.77597,1.47947-6.80298,1.49489l-.77322.41167-1.78822-2.68361.93145-.50304c.36534-.19684,3.70125-1.92331,8.40463-1.92331,2.85605,0,5.64262.63295,8.27994,1.88342l.94552.44899-1.61063,2.78786Z" style="fill:#ffe299; stroke-width:0px;"/><path d="m397.64643,22.37845l-1.56955-2.92546.85042-.45542c2.99494-1.60555,4.42296-7.23912,4.43709-7.29575l.22646-.93912,3.2278.77576-.22388.93654c-.06948.28946-1.74833,7.11562-6.09798,9.4506l-.85036.45285Z" style="fill:#ffe299; stroke-width:0px;"/><path d="m411.5612,24.38282l-2.75699-1.83583.53131-.80406c.02186-.03087,2.11116-3.21624,2.58204-6.23693l.14919-.95328,3.28189.51202-.14925.95328c-.59695,3.80676-3.00015,7.41539-3.10305,7.56718l-.53514.79762Z" style="fill:#ffe299; stroke-width:0px;"/><path d="m406.4409,23.15679l-2.75692-1.83583.53131-.80406c.02186-.03087,2.1111-3.21624,2.58198-6.23693l.14925-.95328,3.28182.51202-.14919.95328c-.59695,3.80676-3.00015,7.41539-3.10305,7.56718l-.5352.79762Z" style="fill:#ffe299; stroke-width:0px;"/><polygon points="448.58913 21.52809 396.38053 11.73784 396.10521 13.11567 448.03596 25.52779 448.58913 21.52809" style="fill:#d3976e; stroke-width:0px;"/><polygon points="445.61862 33.23393 395.90834 14.53854 395.39506 15.84948 444.381 37.07667 445.61862 33.23393" style="fill:#d3976e; stroke-width:0px;"/><path d="m401.18944,22.11857c-1.01632,0-1.98119-.48501-2.71578-1.36496-1.95682-2.34399-.97775-6.86734.09774-9.16758,1.10898-2.36717,2.39673-2.86374,3.28189-2.86374.91851,0,1.70586.35507,2.21914,1.0009.81053,1.01632.61241,2.33627.53263,2.71578l-2.77112-.10035c-.03857.07849-.23286.60725-.27527.69859-.99446,2.16387-1.127,4.88096-.53652,5.58853.10296.1235.18016.16983.20202.17755-.04504-.01674.09649.06429.27527-.30878l3.02584,1.20675c-.66253,1.38553-1.70718,2.23592-2.94607,2.39287-.12865.01674-.26113.02444-.38978.02444Z" style="fill:#ffe299; stroke-width:0px;"/><path d="m406.74582,24.08048c-1.04207,0-2.03264-.52487-2.7171-1.44216-2.64888-3.55329-1.16683-8.33776.38984-10.52097,1.11023-1.55407,2.18447-1.88084,2.89072-1.88084.23927,0,.47471.03603.70242.10936.85168.2753,2.28353.92756,1.98251,3.94439l-3.01686-.56479c-.76417,1.59527-1.46659,5.34411-.22382,7.04743l2.91007,1.27365c-.50951,1.1527-1.44737,1.88599-2.57431,2.01464-.12607.01288-.23412.01928-.34348.01928Z" style="fill:#ffe299; stroke-width:0px;"/><path d="m411.86479,38.3992c.9726-2.70551-1.52068-7.15805-2.42123-9.41715-1.64028-4.1155-1.37783-15.0044,1.68664-17.14515.88509-.61624,1.92459-.73201,2.76854-.31905.89282.43868,1.82421,1.96706,1.49229,3.78486l-2.883-.54161c-.82592,2.26167-1.34052,10.41676.2367,13.87231,1.09867,2.40574,3.31273,6.36558,2.0687,10.3743-.80664,2.60129-3.64076,1.31737-2.94864-.60851Z" style="fill:#ffe299; stroke-width:0px;"/></svg>