<?xml version="1.0" encoding="UTF-8"?><svg id="c" xmlns="http://www.w3.org/2000/svg" width="500" height="90" viewBox="0 0 500 90"><polygon points="110.58973 36.10821 81.10452 36.10821 71.99482 9.07634 62.88513 36.10821 33.39992 36.10821 57.25285 52.81723 48.1419 79.84652 71.99482 63.14008 95.84775 79.84652 86.7368 52.81723 110.58973 36.10821" style="fill:#ffce31; stroke-width:0px;"/><polygon points="90.30683 32.67583 95.35633 17.89784 81.92786 27.17476 83.80745 32.67583 90.30683 32.67583" style="fill:#ffdf85; stroke-width:0px;"/><polygon points="66.73435 70.87192 71.99354 86.26614 77.25533 70.87192 71.99354 67.23885 66.73435 70.87192" style="fill:#ffdf85; stroke-width:0px;"/><polygon points="96.02659 50.63918 91.10703 54.03682 93.19501 60.15154 109.79597 60.15154 96.02659 50.63918" style="fill:#ffdf85; stroke-width:0px;"/><polygon points="62.05921 27.17476 48.63203 17.89784 53.68282 32.67583 60.1822 32.67583 62.05921 27.17476" style="fill:#ffdf85; stroke-width:0px;"/><polygon points="47.96306 50.63918 34.19239 60.15154 50.79335 60.15154 52.88391 54.03682 47.96306 50.63918" style="fill:#ffdf85; stroke-width:0px;"/><path d="m130.60235,79.23262c-7.96623,0-10.00201.08845-13.27655.35379.35379-4.3369.79652-6.99231,1.85838-10.44374,2.30162-7.3466,6.55008-14.07307,12.74536-19.82612,3.36349-3.09815,6.72697-5.66461,15.75506-11.77195,7.61194-5.13342,9.47033-7.43505,9.47033-11.50611,0-4.24845-3.80572-7.08076-9.47033-7.08076-4.24845,0-7.25815,1.41615-9.20499,4.42535-1.23926,1.94733-1.77044,3.71727-2.21267,7.43505l-18.58737-1.94733c1.3277-7.70039,2.92075-11.59506,6.46163-15.75506,5.04498-5.92995,13.09915-9.11604,23.45495-9.11604,11.94884,0,21.06488,3.98261,25.49073,11.15182,1.94683,3.09815,2.92075,6.55008,2.92075,10.3558,0,6.46113-2.65541,11.94884-8.14312,16.46264-2.92075,2.56696-3.80572,3.18659-12.83381,9.47083-7.70039,5.31032-10.97492,8.40796-13.0107,12.30263h20.62264c6.63802,0,10.70958-.17689,14.16152-.61963v16.72848c-5.13342-.44274-8.8512-.61963-15.13543-.61963h-31.06639Z" style="fill:#fff; stroke-width:0px;"/><path d="m194.32968,72.5941c-2.92075-2.92075-5.13342-6.28373-6.46113-9.82411-2.30112-6.28424-3.45193-13.09965-3.45193-20.26886,0-9.29343,2.21267-18.94115,5.57616-24.51731,5.39927-9.02759,14.60375-13.98412,25.75607-13.98412,8.58536,0,16.10885,2.92075,21.50812,8.23107,2.92075,2.92075,5.13342,6.28424,6.46113,9.82461,2.30112,6.28424,3.45193,13.09965,3.45193,20.3573,0,9.29343-2.21267,19.0296-5.57616,24.60576-5.31082,8.8507-14.60425,13.80723-25.84502,13.80723-8.6738,0-16.0199-2.8323-21.41917-8.23157Zm8.23157-30.80105c0,15.84301,4.51379,23.98613,13.27604,23.98613,8.67431,0,13.09965-7.96573,13.09965-23.72079,0-15.13493-4.60274-23.10066-13.1881-23.10066-8.32002,0-13.1876,8.40846-13.1876,22.83532Z" style="fill:#fff; stroke-width:0px;"/><path d="m267.43938,79.23262c-7.96623,0-10.00201.08845-13.27655.35379.35379-4.3369.79652-6.99231,1.85838-10.44374,2.30162-7.3466,6.55008-14.07307,12.74536-19.82612,3.36349-3.09815,6.72697-5.66461,15.75506-11.77195,7.61194-5.13342,9.47033-7.43505,9.47033-11.50611,0-4.24845-3.80622-7.08076-9.47033-7.08076-4.24845,0-7.25815,1.41615-9.20499,4.42535-1.23926,1.94733-1.77044,3.71727-2.21267,7.43505l-18.58737-1.94733c1.3277-7.70039,2.92075-11.59506,6.46163-15.75506,5.04498-5.92995,13.09915-9.11604,23.45495-9.11604,11.94884,0,21.06488,3.98261,25.49023,11.15182,1.94784,3.09815,2.92075,6.55008,2.92075,10.3558,0,6.46113-2.65541,11.94884-8.14312,16.46264-2.92075,2.56696-3.80522,3.18659-12.83281,9.47083-7.70089,5.31032-10.97543,8.40796-13.01121,12.30263h20.62264c6.63852,0,10.70908-.17689,14.16152-.61963v16.72848c-5.13292-.44274-8.8517-.61963-15.13543-.61963h-31.06639Z" style="fill:#fff; stroke-width:0px;"/><path d="m340.28274,56.75109c.53169,2.92075,1.06236,4.16001,2.47852,5.66461,2.39007,2.47852,5.92995,3.80622,10.17941,3.80622,6.90286,0,11.24077-3.45193,11.24077-8.8512,0-3.62883-1.77094-6.46113-4.78014-7.61194-2.03628-.70808-4.78014-1.15031-8.23157-1.15031s-7.43454.17689-10.88698.53068v-15.22338c3.0092.35379,5.92995.53118,9.38238.53118,8.40846,0,12.56847-2.8323,12.56847-8.49691,0-4.77964-3.36298-7.52349-9.20448-7.52349-6.28474,0-9.47083,2.47852-10.79853,8.14312l-19.11855-2.74386c1.6825-5.48771,3.09764-8.14312,5.92995-11.24077,5.39927-5.8415,13.54239-8.8512,24.34092-8.8512,9.64672,0,17.61295,2.65541,22.65843,7.52349,3.27454,3.27454,4.95603,7.52299,4.95603,12.56847,0,9.38188-5.04447,15.22338-15.22388,17.61295,5.39927.79702,8.32002,2.03578,11.41766,4.69119,3.71777,3.36349,5.8415,7.96573,5.8415,13.09965,0,4.51379-1.23825,8.6738-3.53988,11.77145-1.94683,2.65541-5.04548,5.13393-8.32002,6.63852-4.60224,2.12423-11.77145,3.45143-18.40997,3.45143-7.96522,0-15.93145-1.85838-20.62315-4.95603-4.07056-2.65541-7.1682-6.55008-9.11604-11.41816-.53068-1.23876-.88447-2.38957-1.5046-4.69069l18.76376-3.27504Z" style="fill:#fff; stroke-width:0px;"/><polygon points="466.60008 36.10821 437.11487 36.10821 428.00518 9.07634 418.89548 36.10821 389.41027 36.10821 413.26323 52.81723 404.15222 79.84652 428.00518 63.14008 451.85813 79.84652 442.74712 52.81723 466.60008 36.10821" style="fill:#ffce31; stroke-width:0px;"/><polygon points="446.31715 32.67583 451.36665 17.89784 437.93821 27.17476 439.81777 32.67583 446.31715 32.67583" style="fill:#ffdf85; stroke-width:0px;"/><polygon points="422.74467 70.87192 428.00392 86.26614 433.26568 70.87192 428.00392 67.23885 422.74467 70.87192" style="fill:#ffdf85; stroke-width:0px;"/><polygon points="452.03691 50.63918 447.11738 54.03682 449.20536 60.15154 465.80632 60.15154 452.03691 50.63918" style="fill:#ffdf85; stroke-width:0px;"/><polygon points="418.06956 27.17476 404.64238 17.89784 409.6932 32.67583 416.19259 32.67583 418.06956 27.17476" style="fill:#ffdf85; stroke-width:0px;"/><polygon points="403.97344 50.63918 390.20277 60.15154 406.80373 60.15154 408.89429 54.03682 403.97344 50.63918" style="fill:#ffdf85; stroke-width:0px;"/></svg>