<?xml version="1.0" encoding="UTF-8"?><svg id="c" xmlns="http://www.w3.org/2000/svg" width="500" height="90" viewBox="0 0 500 90"><path d="m0,28.18282c2.03528.1774,4.07106.26584,9.20499.26584h3.09764c6.19579-8.6738,11.94884-19.20649,13.80723-25.40228l15.13543,3.98311c-.70808,1.15031-.70808,1.23876-1.85889,3.36298-3.71727,7.08076-7.1692,12.74536-10.88648,17.79034,16.10885-.44223,18.32152-.53068,26.99533-1.23876-3.89467-4.77964-5.66461-6.72697-10.08995-11.06387l12.12573-6.54958c10.08995,10.35529,16.0204,17.61345,23.98613,29.2085l-12.30313,7.52299c-2.38957-3.71777-3.09764-4.86859-5.04498-7.61244-16.0199,1.94784-26.72999,2.56696-56.20333,3.62933-2.74386.08845-3.89467.17689-6.0189.44223l-1.94683-14.33841Zm7.52299,58.23911c.35429-3.36298.53118-7.08076.53118-11.77145v-19.207c0-3.80522-.17689-6.54907-.44274-9.11604,1.94733.17689,4.69119.26534,9.11654.26534h46.55611c4.3369,0,7.08076-.08845,9.11654-.26534-.35429,2.65541-.44274,4.95703-.44274,9.11604v19.207c0,5.04548.1774,8.23157.53118,11.77145h-14.07307v-3.71677H21.41917v3.71677H7.52299Zm13.80773-16.10835h37.26217v-11.41766H21.33072v11.41766Z" style="fill:#fff; stroke-width:0px;"/><path d="m108.24866,57.47977c-3.0097,11.32921-4.77964,16.37469-8.23157,23.98613-.61963,1.3277-.88497,1.94683-1.68149,3.36298q-.61963.97392-1.06236,2.12473l-11.50611-10.1784c1.5046-1.77094,1.94683-2.47852,3.27454-4.78014,3.36349-6.19529,5.75305-12.56847,8.32002-22.30464l10.88698,7.78934Zm-14.78114-31.68652c6.01839,3.45193,9.55877,5.8415,15.66611,10.70958l-7.43505,11.15232c-6.37268-5.48771-9.20499-7.61144-15.84301-11.683l7.61194-10.1789Zm61.77949,12.92276c4.07156,0,6.01839-.08845,8.49691-.35479-.26534,2.30162-.35429,3.80622-.35429,7.61244v5.8415c0,3.62832.08895,5.48771.35429,7.25765-3.0092-.17689-4.51379-.17689-8.58536-.17689h-30.53571q-.35429,1.3277-.61963,2.74386h36.90839c2.30112,0,4.51379-.08845,6.37268-.17689-.26584,1.23926-.26584,1.68149-.53118,4.42535-.70808,11.24077-2.30112,16.37369-5.57616,18.58686-2.21267,1.5046-6.63802,2.30162-13.45344,2.30162-2.92075,0-7.1692-.08845-10.26685-.1779-.88497-4.69069-1.59355-6.81441-3.62883-11.15131,4.24845.44223,8.58536.70757,12.21418.70757,5.75305,0,6.01839-.26534,6.46113-5.22237h-30.88999c-.35379,1.3277-.53068,2.03628-1.3277,4.5148l-13.63033-1.15081c3.45193-9.73617,5.39927-17.08227,6.19579-23.80924l8.8507.08845h28.67732v-2.8323h-32.12875c-4.24845,0-5.57616.08845-7.87778.26534v-9.64772c2.39007.26635,3.89467.35479,7.87778.35479h4.51379c-1.76994-1.3277-2.38957-1.68149-5.39927-3.54088,2.8323-2.03528,4.77964-4.24845,5.93045-6.54958.97342-2.12423,1.3277-4.16001,1.3277-8.14262h-5.31082c-5.57616,0-7.08076.08845-9.64722.26534v-5.31082l-6.72697,9.20549c-5.75305-5.39927-7.87728-7.08076-14.60425-11.41816l8.23157-9.82411c5.66461,3.53988,8.8512,5.8415,13.09965,9.38188v-4.07156c3.18609.35429,6.10684.53118,10.53219.53118h11.06387c0-2.74386-.08845-3.89467-.35379-5.57616h14.5153c-.35379,1.68149-.44274,2.92075-.44274,5.57616h13.54189c4.5143,0,7.3466-.17689,10.26735-.53118v12.21418c-3.18659-.35379-5.66461-.44223-9.73617-.44223h-7.52299v5.22187l8.93914-4.77964c4.07156,3.71777,6.19579,6.10734,9.38188,10.62114l-9.29343,6.90336c-2.74335-5.04447-4.69069-7.61144-9.02759-12.21368v6.63802c0,2.92075-.97392,4.60274-3.36349,5.842h7.08076Zm-33.01422-13.98462c-2.92075,6.01839-4.86808,8.6738-9.55877,12.92226-2.8323-3.27504-4.24845-4.42535-8.49691-7.25765,4.24845-3.09815,6.10684-5.31082,8.32002-9.64772l9.73567,3.98311Zm14.16152,13.98462c-.08845-2.65541-.61963-5.04548-1.68149-7.70089-1.06236,3.09815-2.03578,4.69119-4.5143,7.70089h6.19579Zm-.26534-18.23308c-.17689,4.3369-.44274,6.63802-1.15081,9.38188,2.21267.26534,2.74386.26534,3.45193.26534,1.3277,0,1.68149-.35379,1.68149-1.41615v-8.23107h-3.98261Z" style="fill:#fff; stroke-width:0px;"/><path d="m178.08382,29.42208c3.98311.53118,6.81542.70808,14.25046.70808h44.43138c4.24845,0,4.86808-.08845,7.08076-.97342l6.90386,7.43454c-1.06236,1.59304-1.23926,1.94784-2.47852,5.57616-4.60224,13.1876-10.97492,23.10066-19.64873,30.35931-6.72697,5.66461-13.09965,9.11604-25.22539,13.80672-2.30112-5.22137-4.77964-8.8507-9.91306-14.5153,10.62114-2.74386,16.99382-5.57616,23.3665-10.35529,6.46113-4.78014,10.3558-9.82461,13.63033-17.7024h-38.32454c-6.99231,0-8.49691.08845-14.07307.53169v-14.87009Zm7.3466-22.12724c3.45193.53118,6.72647.70808,13.0107.70808h28.23458c6.99231,0,10.79803-.17689,13.89618-.70808v14.86959c-3.36349-.26534-7.52349-.44274-13.63084-.44274h-28.67682c-6.99231,0-8.93965.08895-12.83381.44274V7.29484Z" style="fill:#fff; stroke-width:0px;"/><path d="m259.24921,36.50284c4.16001.62013,8.93965.79702,18.14463.79702h42.30665c8.8517,0,12.21569-.17689,18.14564-.79702v17.08227c-4.24946-.44223-8.14312-.53068-18.23408-.53068h-42.12976c-9.91306,0-12.83381.08845-18.23308.53068v-17.08227Z" style="fill:#fff; stroke-width:0px;"/><path d="m410.95733,11.72019c-1.23825,2.21267-1.94683,3.89467-3.71677,8.23157-3.62933,8.76225-7.17021,15.93145-11.77145,23.3665,7.69988,6.55008,10.44374,9.20448,19.29444,18.58686l-12.03779,12.56847c-4.86758-6.37318-9.91206-11.85989-16.72848-18.14463-8.40746,10.88698-19.20599,19.82612-34.25298,28.14614-3.0092-5.31082-5.66461-8.58536-11.15232-13.36449,10.97543-5.22237,16.99382-9.11704,23.98714-15.40077,3.62832-3.27554,6.63752-6.37318,9.46982-9.82461-10.97543-8.32002-15.84301-11.6835-23.01221-15.75506l10.88698-10.70958c8.05468,4.69119,12.03679,7.43505,20.88748,13.89618,5.13393-8.23157,10.17941-20.18041,11.50611-27.17272l16.64003,5.57616Z" style="fill:#fff; stroke-width:0px;"/><path d="m435.03493,10.30404c11.15131,6.54958,16.90537,10.62114,24.33891,17.34811l-10.44374,13.80773c-7.69988-8.05468-15.22388-13.89618-24.07458-18.67581l10.17941-12.48002Zm-9.29393,54.96407c9.02759-.70757,18.32152-2.92075,26.64154-6.37218,11.15232-4.60224,19.11754-11.24077,25.93296-21.8614,3.71677-5.66511,6.10684-10.53319,8.6738-17.34861,4.3369,5.22237,6.37218,6.99231,13.0107,11.86039-8.05367,17.43655-16.46213,27.8803-28.85371,35.84652-9.55927,6.19529-17.96774,9.47083-34.43088,13.27604-3.45143.79702-3.98211.88547-6.37218,1.59304l-4.60224-16.99382Z" style="fill:#fff; stroke-width:0px;"/></svg>